<?xml version="1.0" encoding="UTF-8" standalone="no"?>
<svg
   viewBox="0 0 30 30"
   width="30px"
   height="30px"
   version="1.1"
   id="svg1"
   sodipodi:docname="icons8-plus-+.svg"
   inkscape:export-filename="icons8-plus-+.png"
   inkscape:export-xdpi="96"
   inkscape:export-ydpi="96"
   inkscape:version="1.4.2 (f4327f4, 2025-05-13)"
   xmlns:inkscape="http://www.inkscape.org/namespaces/inkscape"
   xmlns:sodipodi="http://sodipodi.sourceforge.net/DTD/sodipodi-0.dtd"
   xmlns="http://www.w3.org/2000/svg"
   xmlns:svg="http://www.w3.org/2000/svg">
  <defs
     id="defs1" />
  <sodipodi:namedview
     id="namedview1"
     pagecolor="#ffffff"
     bordercolor="#000000"
     borderopacity="0.25"
     inkscape:showpageshadow="2"
     inkscape:pageopacity="0.0"
     inkscape:pagecheckerboard="0"
     inkscape:deskcolor="#d1d1d1"
     inkscape:zoom="26.9"
     inkscape:cx="15"
     inkscape:cy="15"
     inkscape:window-width="1920"
     inkscape:window-height="1009"
     inkscape:window-x="1912"
     inkscape:window-y="-8"
     inkscape:window-maximized="1"
     inkscape:current-layer="svg1" />
  <g
     id="surface7311270">
    <path
       style=" stroke:none;fill-rule:nonzero;fill:rgb(18.039216%,80.000001%,44.313726%);fill-opacity:1;"
       d="M 15 3 C 8.371094 3 3 8.371094 3 15 C 3 21.628906 8.371094 27 15 27 C 21.628906 27 27 21.628906 27 15 C 27 8.371094 21.628906 3 15 3 Z M 21 16 L 16 16 L 16 21 C 16 21.554688 15.550781 22 15 22 C 14.449219 22 14 21.554688 14 21 L 14 16 L 9 16 C 8.449219 16 8 15.554688 8 15 C 8 14.445312 8.449219 14 9 14 L 14 14 L 14 9 C 14 8.445312 14.449219 8 15 8 C 15.550781 8 16 8.445312 16 9 L 16 14 L 21 14 C 21.550781 14 22 14.445312 22 15 C 22 15.554688 21.550781 16 21 16 Z M 21 16 "
       id="path1" />
  </g>
</svg>
